<svg height="512pt" viewBox="-36 0 512 512.00011" width="512pt" xmlns="http://www.w3.org/2000/svg"><path fill="#ffffff" 
d="m101.945312 337.464844h-86.945312c-8.285156 0-15 6.714844-15 15v144.535156c0 8.285156 6.714844 
15 15 15h86.949219c8.28125 0 15-6.714844 15-15v-144.535156c-.003907-8.285156-6.71875-15-15.003907-15zm-15 
144.535156h-56.945312v-114.535156h56.949219v114.535156zm0 0"/>
<path fill="#ffffff" d="m263.296875 256.675781h-86.949219c-8.285156 0-15 6.714844-15 15v225.324219c0 8.285156 6.714844 15 
15 15h86.949219c8.28125 0 15-6.714844 15-15v-225.324219c0-8.285156-6.71875-15-15-15zm-15 225.324219h-56.949219v-195.324219h56.949219zm0 0"/>
<path fill="#ffffff" d="m424.640625 134.660156h-86.945313c-8.285156 0-15 6.714844-15 15v347.339844c0 8.285156 6.714844 15 15 15h86.945313c8.285156 0 
15-6.714844 15-15v-347.339844c0-8.285156-6.714844-15-15-15zm-14.996094 347.339844h-56.949219v-317.34375h56.949219zm0 0"/>
<path fill="#ffffff" d="m15.992188 188.585938c2.351562 0 4.738281-.554688 6.96875-1.726563l156.664062-82.382813 62.359375
 32.328126c4.472656 2.320312 9.8125 2.238281 14.210937-.21875l138.925782-77.523438-5.34375 14.101562c-2.9375 7.746094.960937 
 16.40625 8.707031 19.34375 1.75.660157 3.546875.976563 5.3125.976563 6.054687 0 11.757813-3.691406 
 14.03125-9.6875l19.859375-52.394531c.746094-1.96875 
 1.09375-4.347656.925781-6.476563-.144531-2.140625-.738281-4.28125-1.851562-6.277343-2.558594-4.585938-7.164063-7.296876-12.035157-7.64453
 2l-53.746093-10.710937c-8.121094-1.621094-16.023438 3.652343-17.640625 11.777343-1.621094 8.125 3.652344 16.023438 11.777344 17.
 644532l15.5 3.085937-131.992188 73.65625-62.144531-32.21875c-4.355469-2.257812-9.542969-2.242187-13.882813.042969l-163.601562 
 86.023438c-7.332032 3.859374-10.148438
  12.925781-6.292969 20.257812 2.683594 5.105469 7.894531 8.023438 13.289063 8.023438zm0 0"/></svg>